#!OML:ASF F:\VICON\USERDATA\INSTALL\Justin_Nancy\Justin_Nancy.ASF
:FULLY-SPECIFIED
:DEGREES
362
root -0.80552 17.5196 17.0939 -1.66908 -0.28342 -2.06871
lowerback 6.57239 0.617399 1.38566
upperback -0.51341 1.02427 2.14606
thorax -4.23527 0.501185 1.33919
lowerneck -15.1171 -5.36216 -10.3196
upperneck 22.3096 -6.81012 7.74323
head 10.2455 -3.15957 3.54591
rclavicle -6.7944e-016 8.34896e-015
rhumerus -31.2972 -15.7278 -76.6339
rradius 27.5974
rwrist 8.50523
rhand -15.0402 11.9308
rfingers 7.12502
rthumb 11.126 -17.7542
lclavicle -6.7944e-016 8.34896e-015
lhumerus -34.3994 4.02952 84.7977
lradius 32.0402
lwrist -7.84193
lhand -9.87432 27.6932
lfingers 7.12502
lthumb 16.1047 57.0441
rfemur -5.31978 5.0334 27.7515
rtibia 22.6558
rfoot -10.3883 -7.16259
rtoes -0.132532
lfemur -23.7993 2.19903 -17.3525
ltibia 65.4749
lfoot -2.12534 -4.08982
ltoes -7.37031
363
root -0.805998 17.4999 17.2556 -1.49904 -0.524839 -2.28465
lowerback 6.48799 0.725465 1.69616
upperback -0.467428 1.18963 2.16533
thorax -4.1365 0.576803 1.16919
lowerneck -15.2611 -5.34084 -10.4341
upperneck 22.2235 -6.76254 7.87511
head 10.2464 -3.12884 3.61618
rclavicle -1.80366e-014 -1.43125e-014
rhumerus -30.6927 -14.8411 -77.106
rradius 28.1267
rwrist 7.85924
rhand -14.8206 11.4611
rfingers 7.12502
rthumb 11.3378 -18.2124
lclavicle -1.80366e-014 -1.43125e-014
lhumerus -34.6869 4.04407 84.7793
lradius 31.7254
lwrist -7.70294
lhand -10.2527 27.3619
lfingers 7.12502
lthumb 15.7403 56.7418
rfemur -4.91525 5.31255 28.079
rtibia 22.7428
rfoot -10.9617 -7.53289
rtoes -0.574654
lfemur -24.9233 2.14827 -17.1791
ltibia 64.656
lfoot -3.49729 -2.92194
ltoes -9.25099
364
root -0.806947 17.477 17.413 -1.37299 -0.706865 -2.58503
lowerback 6.46536 0.817861 2.11162
upperback -0.352962 1.34224 2.20666
thorax -3.99803 0.64489 0.964665
lowerneck -15.6203 -5.32439 -10.456
upperneck 22.1473 -6.69377 7.89002
head 10.2817 -3.08833 3.62871
rclavicle -1.95989e-014 -1.86858e-014
rhumerus -30.0103 -14.0783 -77.5343
rradius 28.6933
rwrist 7.3326
rhand -14.5866 10.9436
rfingers 7.12502
rthumb 11.5635 -18.7173
lclavicle -1.95989e-014 -1.86858e-014
lhumerus -34.5807 4.20091 84.7435
lradius 31.0987
lwrist -7.76213
lhand -10.2908 27.4518
lfingers 7.12502
lthumb 15.7036 56.8347
rfemur -4.42621 5.52799 28.4967
rtibia 22.704
rfoot -11.4855 -7.79579
rtoes -0.657812
lfemur -26.0443 2.08648 -16.9251
ltibia 63.7571
lfoot -4.56248 -1.52879
ltoes -10.169
365
root -0.802472 17.4569 17.5756 -1.27222 -0.647034 -3.01115
lowerback 6.52442 0.821286 2.72142
upperback -0.342979 1.39873 2.27443
thorax -4.00886 0.660638 0.686852
lowerneck -15.8017 -5.32399 -10.4278
upperneck 22.0816 -6.65374 7.79984
head 10.2842 -3.07293 3.5934
rclavicle -1.74123e-014 4.37326e-015
rhumerus -29.619 -13.4816 -77.7961
rradius 29.3169
rwrist 7.16195
rhand -14.7756 11.3089
rfingers 7.12502
rthumb 11.3812 -18.3622
lclavicle -1.74123e-014 4.37326e-015
lhumerus -34.4911 4.45307 84.6623
lradius 30.2397
lwrist -8.49634
lhand -10.0303 27.5698
lfingers 7.12502
lthumb 15.9545 56.9327
rfemur -3.91123 5.46354 29.007
rtibia 22.6246
rfoot -11.9833 -7.98204
rtoes -0.766167
lfemur -27.0216 1.79046 -16.5454
ltibia 62.7369
lfoot -5.48031 0.0216343
ltoes -10.2411
366
root -0.795856 17.4379 17.7374 -1.16566 -0.693444 -3.35324
lowerback 6.71598 0.82935 3.25062
upperback -0.511261 1.46732 2.28208
thorax -4.27909 0.679039 0.38795
lowerneck -15.412 -5.26373 -10.5024
upperneck 21.8989 -6.61316 7.93723
head 10.1476 -3.05386 3.66436
rclavicle 1.63314e-014 -1.07344e-014
rhumerus -29.6514 -12.4422 -78.1719
rradius 30.2061
rwrist 6.50913
rhand -14.9643 11.3247
rfingers 7.12502
rthumb 11.1992 -18.3564
lclavicle 1.63314e-014 -1.07344e-014
lhumerus -34.8179 4.77074 84.4044
lradius 29.4333
lwrist -9.50025
lhand -9.81943 27.7661
lfingers 7.12502
lthumb 16.1575 57.1127
rfemur -3.37067 5.31762 29.4059
rtibia 22.5175
rfoot -12.4679 -8.0413
rtoes -0.834341
lfemur -27.8672 1.48164 -16.2016
ltibia 61.5017
lfoot -6.18562 1.65775
ltoes -8.64046
367
root -0.790541 17.4167 17.8976 -0.9799 -0.874744 -3.5988
lowerback 6.80035 0.848582 3.63698
upperback -0.66928 1.53541 2.28023
thorax -4.48087 0.699618 0.160775
lowerneck -15.1461 -5.17075 -10.5699
upperneck 21.7999 -6.51081 8.03614
head 10.0565 -3.00749 3.72843
rclavicle -2.50034e-015 -9.14409e-015
rhumerus -29.6373 -11.3327 -78.5819
rradius 31.2499
rwrist 5.79735
rhand -14.3223 9.67618
rfingers 7.12502
rthumb 11.8183 -19.9703
lclavicle -2.50034e-015 -9.14409e-015
lhumerus -35.2663 5.05845 84.1695
lradius 28.8303
lwrist -9.76835
lhand -9.80311 27.9069
lfingers 7.12502
lthumb 16.1732 57.2522
rfemur -2.8227 5.34104 29.708
rtibia 22.327
rfoot -12.8062 -8.051
rtoes -0.491657
lfemur -28.7287 1.27308 -15.9346
ltibia 60.0267
lfoot -6.5729 3.10444
ltoes -5.95026
368
root -0.784118 17.4003 18.0711 -0.845345 -1.0003 -3.47193
lowerback 6.73194 0.949346 3.64557
upperback -0.687827 1.66399 2.2057
thorax -4.45605 0.762356 0.0665044
lowerneck -15.3311 -5.21379 -10.5417
upperneck 21.8351 -6.52505 7.8931
head 10.1 -3.02303 3.66791
rclavicle -2.97245e-014 -9.54166e-015
rhumerus -29.3633 -10.8163 -78.7049
rradius 31.9496
rwrist 5.84889
rhand -13.8467 8.88179
rfingers 7.12502
rthumb 12.2769 -20.7378
lclavicle -2.97245e-014 -9.54166e-015
lhumerus -35.6063 5.1022 84.1651
lradius 28.488
lwrist -9.42529
lhand -10.0285 27.3771
lfingers 7.12502
lthumb 15.9562 56.7399
rfemur -2.15181 5.33589 29.5908
rtibia 22.1368
rfoot -13.1906 -8.08003
rtoes 0.556429
lfemur -29.2958 0.970491 -16.103
ltibia 58.237
lfoot -7.16595 4.47395
ltoes -5.14513
